<svg preserveAspectRatio="none" overflow="visible" style="display: block;" width="280" height="108" viewBox="0 0 280 108" fill="none" xmlns="http://www.w3.org/2000/svg">
<g id="Logo-TribuMusic 2">

<path id="Vector" d="M51.8686 12.4041C54.9843 11.8748 57.6516 13.3716 58.7451 16.2833C59.4039 40.9729 58.8412 65.8131 59.0288 90.5575C57.6013 97.7864 47.8608 97.3072 47.2569 89.6813L47.2706 17.9992C47.3667 15.4938 49.3248 12.8377 51.8686 12.4087V12.4041Z" fill="#D4B5FF"/>
<path id="Vector_2" d="M70.2837 12.4041C73.3993 11.8748 76.0667 13.3716 77.1601 16.2833C77.8189 40.9729 77.2562 65.8131 77.4438 90.5575C76.0163 97.7864 66.2758 97.3072 65.6719 89.6813L65.6856 17.9992C65.7817 15.4938 67.7399 12.8377 70.2837 12.4087V12.4041Z" fill="#D4B5FF"/>
<path id="Vector_3" d="M228.685 17.4379C232.793 17.7711 237.822 19.8658 239.556 23.859C241.445 28.2037 240.937 35.3185 236.605 38.0476L236.554 38.5542C242.497 42.3466 242.877 52.9024 237.776 57.4753C236.312 58.785 232.62 60.5786 230.68 60.5786H215.591L215.257 60.2454V17.7711L215.591 17.4379C219.846 17.6935 224.48 17.0956 228.685 17.4379ZM225.464 34.6933C232.455 36.0943 232.226 24.612 225.464 26.2869V34.6933ZM225.464 42.3283V51.62C226.365 52.3457 228.767 51.8208 229.669 51.1637C231.673 49.6987 231.398 44.3911 229.659 42.7938C228.694 41.9039 226.53 41.6346 225.464 42.3283Z" fill="#FAFAFA"/>
<path id="Vector_4" d="M169.652 60.5786C169.578 60.5558 169.258 60.2363 169.212 60.1313L169.089 18.4237C169.13 17.5429 169.569 17.4972 170.306 17.4242C173.595 17.1048 183.743 17.0956 186.676 17.9445C196.668 20.8242 198.283 35.4189 190.446 41.3745L190.377 41.662L195.735 60.0264C195.758 60.2135 195.506 60.5786 195.392 60.5786H185.628L185.079 59.7982L180.879 43.451L179.301 43.5423V60.2454L178.967 60.5786H169.647H169.652ZM179.305 26.2869V35.2455C181.062 36.1034 183.707 35.5877 184.608 33.671C186.41 29.8329 184.073 24.7672 179.305 26.2824V26.2869Z" fill="#FAFAFA"/>
<path id="Vector_5" d="M255.093 17.4379C255.166 17.4607 255.486 17.7802 255.532 17.8851L255.646 49.6303C256.058 53.409 260.386 53.1489 260.757 50.0775L260.853 18.0951C260.931 17.908 261.022 17.6524 261.196 17.552C261.576 17.3284 269.01 17.3421 269.967 17.4425C271.078 17.5611 271.101 17.8167 271.193 18.8709C270.795 28.2767 271.692 38.0704 271.193 47.4306C270.712 56.421 265.84 61.8153 256.429 61.0258C251.469 60.6105 245.439 55.7365 245.439 50.5202V17.7711L245.773 17.4379H255.093Z" fill="#FAFAFA"/>
<path id="Vector_6" d="M30.1183 24.3473C34.9268 23.535 36.734 26.5197 37.4614 30.6361C40.0693 45.3313 41.1719 60.3458 43.7203 75.0592C44.5941 79.9926 39.6072 83.8169 35.1235 81.421C32.7261 80.1432 32.4242 78.3542 31.9895 75.9172C29.2719 60.8113 28.151 45.0939 25.5203 29.9379C25.6712 27.437 27.5471 24.7809 30.1229 24.3473H30.1183Z" fill="#D4B5FF"/>
<path id="Vector_7" d="M82.6275 82.1831C81.4379 81.0605 80.8843 79.3673 80.7882 77.7609L87.4909 30.4445C89.5909 23.0376 100.022 25.1643 98.9791 32.8267L92.432 78.952C91.7046 83.5066 86.0085 85.3823 82.6275 82.1831Z" fill="#D4B5FF"/>
<path id="Vector_8" d="M137.365 17.9901C137.388 17.9171 137.708 17.5976 137.813 17.552L164.39 17.5839C164.578 17.6387 164.665 17.7574 164.738 17.9308C165.008 18.5606 164.999 23.9001 164.889 24.8539C164.852 25.1734 164.788 25.6252 164.559 25.8534C163.878 26.5288 157.376 25.6434 156.008 26.2915V60.25L155.675 60.5831H146.355C146.282 60.5831 146.016 60.2911 145.801 60.3641V26.3965L145.467 26.0633H137.699L137.365 25.7302V17.9855V17.9901Z" fill="#FAFAFA"/>
<path id="Vector_9" d="M209.931 17.6615V60.25L209.597 60.5831H200.278C200.241 60.5831 199.884 60.2409 199.839 60.1359L199.77 18.0403C199.829 17.8441 199.98 17.6433 200.168 17.552C200.635 17.3284 207.685 17.3512 208.724 17.4333C209.149 17.4653 209.529 17.5611 209.931 17.6661V17.6615Z" fill="#FAFAFA"/>
<path id="Vector_10" d="M13.2542 40.2792C15.8804 39.8594 18.5477 41.0824 19.6869 43.4921C20.5654 45.3495 23.6033 56.4895 23.7405 58.4838C24.1614 64.6311 15.8484 67.1184 12.9111 61.9751C11.8359 60.0994 9.12745 49.9588 8.75229 47.5401C8.24902 44.2862 9.73595 40.8451 13.2542 40.2792Z" fill="#D4B5FF"/>
<path id="Vector_11" d="M108.454 43.3734C112.307 42.593 116.113 45.3906 115.839 49.4021C115.701 51.4147 112.567 62.9015 111.661 64.7133C108.944 70.1395 99.9719 68.0357 100.745 60.9117C100.978 58.785 103.797 48.3615 104.698 46.4904C105.27 45.3039 107.146 43.6381 108.45 43.3734H108.454Z" fill="#D4B5FF"/>
<path id="Vector_12" d="M138.028 69.2085L140.883 69.2405L146.46 82.7034L151.676 69.4276L154.453 69.2085V85.8022H152.454L152.673 72.5309L146.803 85.8204C146.286 85.7976 145.659 85.9573 145.371 85.4508L140.137 72.5263L140.247 85.8022H138.028V69.2085Z" fill="#B4B4B4"/>
<path id="Vector_13" d="M160.886 73.4117V81.7085C160.886 82.0143 161.311 83.1735 161.549 83.4838C162.844 85.1906 166.659 83.9539 166.659 81.9321V73.4163H168.659V85.8067H166.659L166.55 84.6977C164.797 86.2996 161.096 86.6191 159.682 84.4696C159.444 84.109 158.895 82.5026 158.895 82.1558V73.4163H160.895L160.886 73.4117Z" fill="#B4B4B4"/>
<path id="Vector_14" d="M181.748 76.9486L179.772 76.9258C179.749 74.329 174.799 74.3244 174.648 76.6337C174.478 79.2578 181.241 78.2766 181.918 81.5351C183.08 87.1439 172.475 87.5637 172.205 82.0417L174.208 82.1421C174.456 84.5654 178.724 85.0355 179.758 83.2693C181.533 80.2436 174.497 80.5585 173.088 78.3907C169.793 73.3113 181.803 70.8058 181.744 76.9531L181.748 76.9486Z" fill="#B4B4B4"/>
<path id="Vector_15" d="M201.943 77.6149C199.509 78.0347 200.287 76.9394 199.372 75.8624C198.384 74.6941 196.307 74.6667 195.117 75.5475C193.278 76.9075 193.237 81.9093 194.838 83.4792C196.343 84.9579 199.715 84.4285 199.967 82.0645L201.939 82.0417C201.362 86.4365 194.998 87.3675 192.656 83.6663C191.416 81.7085 191.397 78.0347 192.436 75.9993C194.595 71.7779 201.746 72.6404 201.939 77.6194L201.943 77.6149Z" fill="#B4B4B4"/>
<path id="Vector_16" d="M187.961 73.4117H185.962V85.8022H187.961V73.4117Z" fill="#B4B4B4"/>
<path id="Vector_17" d="M186.566 69.026C188.474 68.4738 188.758 71.5452 186.818 71.3078C185.34 71.1299 185.459 69.3455 186.566 69.026Z" fill="white"/>
</g>
</svg>
